<svg width="13" height="14" viewBox="0 0 13 14" fill="none" xmlns="http://www.w3.org/2000/svg">
<path d="M5.99805 0.0178576C3.95979 0.1997 2.20107 1.23647 1.08016 2.91105C0.55092 3.70085 0.173665 4.71319 0.0352475 5.6984C-0.0163198 6.08651 -0.0108916 7.05 0.0488178 7.4354C0.206234 8.43418 0.561776 9.35425 1.10188 10.1549C1.18601 10.277 1.19958 10.3123 1.16973 10.3367C1.15073 10.353 1.09916 10.4399 1.05845 10.5322C0.917319 10.8524 0.941746 11.2432 1.1263 11.5336C1.16973 11.6015 1.37328 11.824 1.58227 12.0276C2.01652 12.4591 2.0518 12.4727 2.23636 12.3072C2.29335 12.2556 2.35035 12.2122 2.3612 12.2122C2.37477 12.2122 2.44534 12.2773 2.52405 12.3533C2.60004 12.432 2.73303 12.565 2.81717 12.6464L2.97187 12.793L3.12114 12.6464L3.27041 12.4971L2.96644 12.1932L2.65975 11.8865L2.81717 11.7318L2.97187 11.5744L3.27856 11.881L3.58253 12.185L3.73181 12.0357L3.87837 11.8865L3.5771 11.5798L3.27313 11.2758L3.37898 11.1618C3.56353 10.9664 3.55268 10.9393 3.09943 10.4833C2.77374 10.1522 2.68418 10.0762 2.51319 9.99205C2.32321 9.89706 2.29335 9.89163 2.06537 9.89435C1.88081 9.89435 1.78311 9.91063 1.67454 9.95134L1.52798 10.0111L1.36785 9.76136C1.04759 9.27011 0.765331 8.61873 0.61063 8.02164C0.474926 7.48968 0.436929 7.15857 0.434215 6.51262C0.434215 5.86124 0.469498 5.58441 0.6242 4.97917C1.16973 2.85406 2.87145 1.16319 5.00199 0.625808C5.58008 0.481963 5.85963 0.44668 6.50015 0.449394C7.28723 0.449394 7.84904 0.541672 8.5167 0.777796C8.66598 0.829363 8.79354 0.861932 8.80711 0.851076C8.85325 0.799509 8.96453 0.500961 8.94281 0.479249C8.89125 0.424968 8.17202 0.207842 7.80562 0.134562C7.21124 0.0178576 6.51372 -0.0282816 5.99805 0.0178576Z" fill="#0072BB"/>
<path d="M9.87105 0.384121L9.72992 0.527966L10.0339 0.831942L10.3406 1.13863L10.1832 1.29333L10.0285 1.45075L9.72177 1.14406L9.4178 0.840084L9.26852 0.989358L9.12197 1.13863L9.42323 1.44532L9.7272 1.7493L9.62135 1.86329C9.43408 2.06141 9.44494 2.08856 9.91447 2.55537C10.251 2.89192 10.346 2.97063 10.5061 3.04391C10.6771 3.12533 10.7151 3.13347 10.9377 3.13076C11.1195 3.13076 11.2172 3.11447 11.3258 3.07376L11.4723 3.01405L11.6325 3.26375C11.8279 3.56501 12.0776 4.06982 12.2133 4.43351C12.6041 5.49199 12.6801 6.7079 12.4277 7.83966C12.1753 8.97143 11.6243 9.96749 10.7911 10.8034C9.84934 11.7452 8.70943 12.3179 7.36868 12.5296C6.93986 12.5947 6.03607 12.5947 5.61811 12.5296C5.22457 12.4671 4.81203 12.364 4.48363 12.2473C4.33435 12.1957 4.20679 12.1632 4.19322 12.174C4.16065 12.2093 4.03309 12.5214 4.04666 12.5404C4.05209 12.5486 4.16337 12.5947 4.29364 12.6408C6.45132 13.4008 8.78271 13.0127 10.5713 11.5932C10.935 11.3028 11.3909 10.8333 11.6759 10.456C12.3626 9.5441 12.7724 8.5616 12.9515 7.40813C13.0167 6.97659 13.0167 6.02667 12.9488 5.5897C12.7968 4.59635 12.4358 3.66543 11.8985 2.87021C11.8143 2.74807 11.8007 2.71279 11.8306 2.68836C11.8496 2.67208 11.9012 2.58523 11.9419 2.49295C12.083 2.17269 12.0586 1.78187 11.874 1.49146C11.8306 1.42361 11.627 1.20105 11.4181 0.994786C10.9811 0.563249 10.9512 0.549679 10.7585 0.723379L10.65 0.821086L10.3596 0.533395C10.1994 0.373265 10.0556 0.24299 10.042 0.24299C10.0257 0.24299 9.94976 0.308127 9.87105 0.384121Z" fill="#0072BB"/>
<path d="M6.09301 2.40347C5.36292 2.49575 4.68983 2.74815 4.13616 3.13355C3.84305 3.33711 3.32466 3.85549 3.1211 4.14861C2.79813 4.61 2.55115 5.20981 2.43716 5.79334C2.37202 6.1326 2.37202 6.89525 2.43716 7.23179C2.61086 8.11658 2.9664 8.79238 3.59335 9.41933C4.2203 10.0436 4.9151 10.4127 5.78089 10.5728C6.15543 10.6434 6.8448 10.6434 7.21934 10.5728C8.08784 10.41 8.77722 10.0463 9.40688 9.41933C10.0338 8.79238 10.4002 8.09758 10.5604 7.23179C10.6309 6.85725 10.6309 6.16788 10.5604 5.79334C10.4002 4.92755 10.0311 4.23275 9.40688 3.6058C8.78807 2.98971 8.13941 2.63959 7.28719 2.46589C7.03479 2.41432 6.30742 2.37633 6.09301 2.40347ZM6.64939 4.19204L6.71724 4.25718V5.06054V5.86119H7.30077C7.887 5.86119 7.887 5.86119 7.95214 5.92904C7.99014 5.96432 8.01999 6.02675 8.01999 6.06474C8.01999 6.15974 6.67653 8.83581 6.61139 8.8738C6.52183 8.91994 6.41869 8.90366 6.35084 8.83309L6.28299 8.76795V7.96459V7.16394H5.69947C5.11323 7.16394 5.11323 7.16394 5.04809 7.09609C5.01009 7.06081 4.98024 6.99838 4.98024 6.96039C4.98024 6.87082 6.32099 4.19204 6.38341 4.15404C6.46755 4.10519 6.58154 4.12147 6.64939 4.19204Z" fill="#67B652"/>
</svg>
