<svg width="24" height="24" viewBox="0 0 24 24" fill="none" xmlns="http://www.w3.org/2000/svg">
<path d="M17 10.48H16.08L13.78 12.78C13.5497 13.0143 13.275 13.2005 12.9719 13.3275C12.6689 13.4545 12.3436 13.52 12.015 13.52C11.6864 13.52 11.3611 13.4545 11.0581 13.3275C10.7551 13.2005 10.4804 13.0143 10.25 12.78L7.95 10.48H7C5.80653 10.48 4.66194 10.9541 3.81802 11.798C2.97411 12.642 2.5 13.7865 2.5 14.98V15.98C2.49921 16.5712 2.61507 17.1567 2.84094 17.703C3.0668 18.2493 3.39824 18.7457 3.81626 19.1638C4.23428 19.5818 4.73067 19.9132 5.27699 20.1391C5.82332 20.365 6.40883 20.4808 7 20.48H17C18.1935 20.48 19.3381 20.0059 20.182 19.162C21.0259 18.3181 21.5 17.1735 21.5 15.98V14.98C21.4982 13.7871 21.0235 12.6436 20.1799 11.8001C19.3364 10.9566 18.1929 10.4819 17 10.48ZM17 16.23C16.7524 16.232 16.5097 16.1604 16.3028 16.0242C16.096 15.8881 15.9342 15.6936 15.838 15.4653C15.7419 15.2371 15.7157 14.9855 15.7628 14.7423C15.8099 14.4992 15.9282 14.2756 16.1026 14.0997C16.277 13.9239 16.4997 13.8039 16.7424 13.7548C16.9852 13.7058 17.237 13.7299 17.466 13.8242C17.695 13.9186 17.8908 14.0788 18.0286 14.2845C18.1664 14.4903 18.24 14.7324 18.24 14.98C18.2392 15.3096 18.1087 15.6256 17.8766 15.8595C17.6445 16.0935 17.3295 16.2266 17 16.23ZM8.31 8.72002C8.12375 8.53266 8.01921 8.27921 8.01921 8.01502C8.01921 7.75083 8.12375 7.49738 8.31 7.31002C8.49737 7.12377 8.75082 7.01923 9.015 7.01923C9.27919 7.01923 9.53264 7.12377 9.72 7.31002L11.01 8.60002V4.02002C11.01 3.7548 11.1154 3.50045 11.3029 3.31291C11.4904 3.12538 11.7448 3.02002 12.01 3.02002C12.2752 3.02002 12.5296 3.12538 12.7171 3.31291C12.9046 3.50045 13.01 3.7548 13.01 4.02002V8.60002L14.31 7.31002C14.4974 7.12377 14.7508 7.01923 15.015 7.01923C15.2792 7.01923 15.5326 7.12377 15.72 7.31002C15.9063 7.49738 16.0108 7.75083 16.0108 8.01502C16.0108 8.27921 15.9063 8.53266 15.72 8.72002L13.96 10.48L12.72 11.72C12.6287 11.8149 12.5193 11.8904 12.3981 11.942C12.277 11.9936 12.1467 12.0202 12.015 12.0202C11.8833 12.0202 11.753 11.9936 11.6319 11.942C11.5107 11.8904 11.4013 11.8149 11.31 11.72L8.31 8.72002Z" fill="#15749C"/>
</svg>
